#!OML:ASF F:\VICON\USERDATA\INSTALL\rory3\rory3.ASF
:FULLY-SPECIFIED
:DEGREES
526
root 2.03244 16.3017 6.26114 17.7018 -19.0556 -359.433
lowerback -3.82636 1.88295 -0.462997
upperback -6.54568 2.42963 -1.83407
thorax -4.55821 1.17576 -1.64107
lowerneck -13.8598 2.15158 3.57722
upperneck 33.057 0.348928 4.72912
head 13.496 1.18542 1.28873
rclavicle -3.29983e-014 -5.1684e-015
rhumerus 186.396 -53.4995 -241.446
rradius 11.1779
rwrist 132.457
rhand -14.5947 16.9689
rfingers 7.12502
rthumb 11.5556 -12.6925
lclavicle -3.29983e-014 -5.1684e-015
lhumerus 13.6143 -41.624 64.771
lradius 23.4874
lwrist -41.2006
lhand -7.98935 22.2581
lfingers 7.12502
lthumb 17.9191 51.4526
rfemur -33.0345 9.92995 392.012
rtibia 46.2157
rfoot 162.699 181.314
rtoes 25.9777
lfemur -59.6856 -21.5961 13.8341
ltibia 42.9262
lfoot -209.927 -177.253
ltoes 28.1496
527
root 2.06144 16.3629 6.33861 17.4998 -23.1842 -359.757
lowerback -3.46327 2.16763 -0.20003
upperback -6.48514 2.79734 -1.91948
thorax -4.67406 1.34209 -1.88975
lowerneck -12.98 2.98688 3.95309
upperneck 32.6434 1.6206 4.4263
head 13.1202 1.7223 1.26611
rclavicle -4.07757e-014 1.15295e-014
rhumerus 183.772 -51.3375 -241.252
rradius 11.3194
rwrist 135.97
rhand -15.1435 18.1462
rfingers 7.12502
rthumb 11.0263 -11.5442
lclavicle -4.07757e-014 1.15295e-014
lhumerus 14.6223 -45.128 63.2865
lradius 24.7657
lwrist -38.6055
lhand -7.01426 22.2407
lfingers 7.12502
lthumb 18.8571 51.3467
rfemur -32.0001 10.344 391.983
rtibia 45.9581
rfoot 163.887 182.304
rtoes 27.1197
lfemur -58.9438 -19.2797 11.6484
ltibia 43.1245
lfoot -204.101 -173.493
ltoes 10.6968
528
root 2.09197 16.4131 6.43232 17.5596 -27.134 -360.052
lowerback -3.39081 2.39624 0.0802782
upperback -6.53602 3.09212 -1.98346
thorax -4.74198 1.47094 -2.11829
lowerneck -12.2036 3.7981 4.30512
upperneck 32.2897 2.84981 4.12584
head 12.8093 2.24613 1.23826
rclavicle 2.12451e-014 1.23246e-014
rhumerus 182.714 -54.3886 -242.543
rradius 10.8814
rwrist 134.539
rhand -15.0496 18.8195
rfingers 7.12502
rthumb 11.1169 -10.866
lclavicle 2.12451e-014 1.23246e-014
lhumerus 15.3108 -48.1414 62.2017
lradius 26.0033
lwrist -36.6144
lhand -6.13671 22.1957
lfingers 7.12502
lthumb 19.7009 51.2173
rfemur -31.3265 10.3992 391.911
rtibia 45.8436
rfoot 164.999 182.779
rtoes 27.8238
lfemur -58.9858 -18.3034 10.8271
ltibia 43.2088
lfoot -200.824 -174.055
ltoes 3.93654
529
root 2.11441 16.4765 6.53165 17.6904 -31.3391 -360.329
lowerback -3.522 2.63715 0.246994
upperback -6.64733 3.4061 -1.94802
thorax -4.76688 1.61664 -2.17286
lowerneck -11.2021 4.67061 4.41857
upperneck 32.0081 4.22609 3.85309
head 12.4854 2.81499 1.26998
rclavicle 2.43511e-015 -7.95139e-016
rhumerus 182.388 -60.9784 -244.381
rradius 10.0754
rwrist 130.058
rhand -14.7782 18.7328
rfingers 7.12502
rthumb 11.3787 -10.9384
lclavicle 2.43511e-015 -7.95139e-016
lhumerus 15.989 -51.5304 60.9462
lradius 27.3234
lwrist -34.0966
lhand -5.40982 22.5253
lfingers 7.12502
lthumb 20.3996 51.4738
rfemur -30.6352 10.34 391.812
rtibia 45.7656
rfoot 165.752 182.868
rtoes 26.0519
lfemur -58.5384 -16.9655 9.48067
ltibia 43.3993
lfoot -197.308 -174.195
ltoes -10.043
530
root 2.13429 16.5333 6.63427 17.7451 -35.8373 -360.429
lowerback -3.30339 2.50757 -0.137545
upperback -6.84661 3.22567 -1.72138
thorax -5.14181 1.54209 -1.74195
lowerneck -10.7597 5.93506 4.80018
upperneck 32.2318 6.12537 3.33798
head 12.5227 3.62355 1.26421
rclavicle 9.63733e-014 -2.42517e-014
rhumerus 181.777 -83.5766 -246.46
rradius 8.93432
rwrist 110.832
rhand -12.4467 16.8201
rfingers 7.12502
rthumb 13.6265 -12.7139
lclavicle 9.63733e-014 -2.42517e-014
lhumerus 15.9001 -54.1682 59.674
lradius 28.9419
lwrist -30.7401
lhand -4.52638 23.0588
lfingers 7.12502
lthumb 21.2484 51.9141
rfemur -30.0381 10.6226 391.431
rtibia 45.8507
rfoot 166.326 182.585
rtoes 23.8959
lfemur -58.0484 -16.6782 8.81695
ltibia 43.4356
lfoot -195.765 -175.608
ltoes -15.7504
